<?xml version="1.0" encoding="UTF-8"?>
<svg xmlns="http://www.w3.org/2000/svg" version="1.1" viewBox="0 0 416.6 164.25">
  <defs>
    <style>
      .cls-1 {
        fill: #ee6e68;
        stroke: #171717;
      }

      .cls-1, .cls-2, .cls-3, .cls-4 {
        stroke-miterlimit: 10;
      }

      .cls-2 {
        stroke: #0c0909;
      }

      .cls-2, .cls-4 {
        fill: #f5b8ad;
      }

      .cls-3 {
        fill: #5f8d5a;
        stroke: #080707;
      }

      .cls-5 {
        fill: #322212;
      }

      .cls-6 {
        fill: #825f46;
      }

      .cls-4 {
        stroke: #020202;
      }
    </style>
  </defs>
  <!-- Generator: Adobe Illustrator 28.6.0, SVG Export Plug-In . SVG Version: 1.2.0 Build 709)  -->
  <g>
    <g id="Layer_1">
      <g>
        <path class="cls-3" d="M301.94,17.29c1.31,4.18,2.61,8.36,3.92,12.53,7.39-3.95,15.51-6.34,23.93-7.28.18,1.39.35,2.77.53,4.16-4.06.46-8.06,1.25-11.94,2.38.32,1.45.63,2.9.95,4.35,3.77-1.06,7.64-1.81,11.57-2.27.18,1.39.35,2.77.53,4.16-10.76,1.29-21.09,4.68-30.1,10.28-.44-1.1-.88-2.21-1.33-3.31,3.27-2.2,6.73-4.09,10.33-5.66-.4-1.36-.8-2.73-1.2-4.09-3.69,1.71-7.23,3.77-10.55,6.19-1.93-4.81-3.86-9.63-5.78-14.44,2.87-2.68,5.94-5,9.16-7ZM310.69,45.31c1.3,4.16,2.6,8.32,3.9,12.49,6.19-1.83,12.63-3.2,19.17-4.09.18,1.39.35,2.77.53,4.16-8.85,1.24-17.55,3.18-25.79,5.71-1.92-4.8-3.85-9.6-5.77-14.4,2.56-1.44,5.22-2.73,7.95-3.86Z"/>
        <path class="cls-3" d="M330.37,41.74c5.19-6.48,11.37-12.44,18.46-16.88,6.91,6.25,12.86,12.79,17.81,18.68-2.51.1-4.99.36-7.44.76-3.42-1.46-6.97-2.84-10.64-4.08-3.66.85-7.22,1.98-10.65,3.32-2.48-.68-5-1.29-7.54-1.79ZM362.01,51.6c-.66,3.83-1.31,7.67-1.97,11.5,5.76-.44,11.47-.69,17.09-.65-.41.71-.81,1.42-1.22,2.13-7.68.71-15.42,1.77-23.19,2.95.4-5.49.79-10.98,1.19-16.47,2.71.09,5.42.27,8.1.54ZM384.49,36.25c-.6,1.37-1.2,2.74-1.79,4.11,3.67,2.12,7.2,4.51,10.53,7.18-.44.57-.88,1.13-1.33,1.7-3.27-2.38-6.72-4.5-10.29-6.38-1.64,3.75-3.27,7.5-4.91,11.24-2.56-.62-5.16-1.15-7.79-1.59,2-7.25,4-14.5,5.99-21.75,3.29,1.61,6.49,3.45,9.59,5.49Z"/>
      </g>
      <g>
        <path class="cls-3" d="M110.16,10.34c1.31,4.18,2.61,8.36,3.92,12.53,7.39-3.95,15.51-6.34,23.93-7.28.18,1.39.35,2.77.53,4.16-4.06.46-8.06,1.25-11.94,2.38.32,1.45.63,2.9.95,4.35,3.77-1.06,7.64-1.81,11.57-2.27.18,1.39.35,2.77.53,4.16-10.76,1.29-21.09,4.68-30.1,10.28-.44-1.1-.88-2.21-1.33-3.31,3.27-2.2,6.73-4.09,10.33-5.66-.4-1.36-.8-2.73-1.2-4.09-3.69,1.71-7.23,3.77-10.55,6.19-1.93-4.81-3.86-9.63-5.78-14.44,2.87-2.68,5.94-5,9.16-7ZM118.91,38.36c1.3,4.16,2.6,8.32,3.9,12.49,6.19-1.83,12.63-3.2,19.17-4.09.18,1.39.35,2.77.53,4.16-8.85,1.24-17.55,3.18-25.79,5.71-1.92-4.8-3.85-9.6-5.77-14.4,2.56-1.44,5.22-2.73,7.95-3.86Z"/>
        <path class="cls-3" d="M138.59,34.79c5.19-6.48,11.37-12.44,18.46-16.88,6.91,6.25,12.86,12.79,17.81,18.68-2.51.1-4.99.36-7.44.76-3.42-1.46-6.97-2.84-10.64-4.08-3.66.85-7.22,1.98-10.65,3.32-2.48-.68-5-1.29-7.54-1.79ZM170.23,44.65c-.66,3.83-1.31,7.67-1.97,11.5,5.76-.44,11.47-.69,17.09-.65-.41.71-.81,1.42-1.22,2.13-7.68.71-15.42,1.77-23.19,2.95.4-5.49.79-10.98,1.19-16.47,2.71.09,5.42.27,8.1.54ZM192.71,29.3c-.6,1.37-1.2,2.74-1.79,4.11,3.67,2.12,7.2,4.51,10.53,7.18-.44.57-.88,1.13-1.33,1.7-3.27-2.38-6.72-4.5-10.29-6.38-1.64,3.75-3.27,7.5-4.91,11.24-2.56-.62-5.16-1.15-7.79-1.59,2-7.25,4-14.5,5.99-21.75,3.29,1.62,6.49,3.45,9.59,5.49Z"/>
      </g>
      <g>
        <path class="cls-1" d="M24.28,92.43c-3.7-1.61-6.26-4.26-7.69-7.93-.91-2.36-2.2-2.39-2.04-5.08.04-.58-1.86-.19-.28-1.63l-1.19-.84c-.38.21.42-.62.23-1.01h0c-3.06-6.66-.02-14.54,6.72-17.42,1.08-.46,2.16-.9,3.23-1.32,5.05-1.95,9.81-3.39,14.28-4.32.09-.02.17-.05.25-.09,3.34-1.86,6.84-3.51,10.52-4.93,2.91-1.13,6.08-2.16,9.51-3.11,3.11-.86,6.35.88,7.34,3.96l.47,1.48c1.01,3.15-.74,6.57-3.89,7.54-1.72.53-3.59,1.18-5.59,1.96l-2.38,1c-.31.13-.56.4-.65.72-.51,1.85-.51,3.46.02,4.81.43,1.12,1.18,1.96,2.25,2.52,1.06.55,2.42.78,4.08.66,1.78-.1,3.53-.49,5.27-1.16.71-.27,1.48-.64,2.32-1.09,2.38-1.28,5.34-.6,6.88,1.62l1.31,1.89c1.68,2.43,1.06,5.78-1.4,7.41-2.17,1.43-4.55,2.65-7.14,3.65-2.04.79-4.24,1.47-6.6,2.03-1.18.29-2.32.5-3.41.61-.19.02-.37.09-.52.22-3.02,2.45-6.59,4.47-10.71,6.07-2.55.99-5.07,1.76-7.55,2.31-5.37,1.26-9.91,1.08-13.62-.53ZM50.5,127.39c-2.93-.11-5.65-2.5-6.33-3.15-.11-.1-.19-.23-.26-.36-.02-.04-.05-.08-.08-.13-3.43-5.44-1.17-12.67,4.73-15.23l40.2-17.45c-.4-.72-1.8-.8-4.22-.21-4.12,1.01-9.65,2.86-16.58,5.54-8.09,3.13-16.9,6.88-26.43,11.24-1.56.71-3.79.27-4.94-1-1.02-1.13-1.4-2.09-1.94-3.4-1.02-2.47.11-5.42,2.54-6.55,9.08-4.22,19.19-8.48,30.33-12.79,7.75-3,14.46-5.42,20.14-7.27,5.85-1.85,10.42-2.6,13.73-2.24,2.86.31,5.17,11.85,5.97,15.39.11.5-1.87,2.47-2.34,2.67l-34.69,15.78c-1.29.5-.68,2.44.66,2.12h0c2.94-.73,7.09-2.13,12.44-4.2,4.94-1.91,10.05-4.08,15.33-6.51,4.08-1.88,7.7-3.65,10.84-5.32,1.52-.81,3.39-.37,4.38,1.04.85,1.21,1.88,2.67,2.78,3.94,1.16,1.64.66,3.91-1.07,4.92-3.08,1.79-6.7,3.67-10.86,5.65-5.7,2.7-11.75,5.3-18.18,7.78-7.29,2.82-14.34,5.2-21.15,7.13-6.61,1.86-11.61,2.72-15,2.6ZM31.27,75.39c.55,1.43,1.53,2.47,2.93,3.13,1.4.66,3.14.79,5.21.4l1.21-.29c-.79-.98-1.45-2.16-1.99-3.54-.84-2.17-1.2-4.51-1.07-7.01.04-.81-.74-1.41-1.51-1.15-.86.28-1.54.53-2.06.73l-2.09.88c-.3.13-.55.39-.64.7-.69,2.3-.69,4.35.01,6.15ZM102.93,53.91s-7.28,4.36-7.14,4.9c.97,3.94,2.86,7.45,3.29,10.24.34,2.25-1.14,4.38-3.37,4.87-5.24,1.15-5.11,1.27-8.96,2.75-.98.38-2.22-.06-2.76-.97-3.44-5.81-4.56-11.75-6.48-18.11-1.14-3.79-2.24-9.2-3.03-13.53-.49-2.72.47-5.58,2.69-7.22,7.58-5.61,14.71,13.04,13.98,13.92l2.98-1.38c7.49-3.7,9.12-1.26,9.25-.97.18.42.36.76.52,1.07.63,1.21.48,2.68-.38,3.74h0"/>
        <path class="cls-1" d="M143.68,115.18c3.44-4.68,4.65-9.29,3.61-13.82-.23-1.01-.62-2.1-1.17-3.27-1.03-2.06-2.47-3.49-4.3-4.27-1.83-.79-3.98-.9-6.43-.34-1.54.35-3.13.95-4.77,1.79-4.45,2.28-9.89.1-11.65-4.58h0c-1.31-3.5-.31-7.46,2.52-9.89,1.96-1.69,4.03-3.18,6.18-4.48,3.89-2.35,7.86-3.98,11.92-4.91,4.48-1.02,8.78-1.14,12.92-.35,4.13.79,7.8,2.55,11,5.26,3.2,2.72,5.65,6.32,7.35,10.81.87,2.32,1.56,4.61,2.07,6.84,1.94,8.47,1.48,16.29-1.37,23.44-2.85,7.16-7.38,13.29-13.58,18.41-5.97,4.92-12.76,8.77-20.39,11.53-.52.19-7.29,2.34-9.97-2.1l-4.94-8.21c-.05-.09-.1-.19-.12-.3-1.82-7.17,4.34-8.66,4.88-8.95,7.52-3.93,12.92-8.14,16.22-12.63ZM180.78,98.83c-2.9-11.24-3.11-17.12-4.76-29.04-.49-3.52,1.37-6.16,4.4-8.22l12.66-1.02c2.39-.19,4.78.75,6.26,2.64.33.41.56.8.64,1.12,1.76,6.46,2.63,12.51,4.11,18.98,4,17.49,4.53,28.42,6.75,46.37.14,1.1-.88,2.79-1.96,3.03l-7.73,2.05c-2.83,1.17-4.02-.97-5.58-3.13-7.47-10.33-10.19-14.94-14.8-32.79Z"/>
        <path class="cls-2" d="M267.35,99.9c-4.65-.6-10.33-.9-17.06-.9-7.79,0-16.56.35-26.32,1.06-.63.05-2.32-1.14-2.36-1.77l.45-11.81c-.03-.61.44-1.14,1.05-1.19,8.06-.61,14.89-.99,20.5-1.12.65-.02,1.14-.57,1.09-1.21l-.02-.26c-.03-.38-.35-.68-.73-.68h-23.72c-3.87,0-7-3.13-7-7v-1.71c0-2.21,1.79-4,4-4h81.2c2.76,0,5,2.24,5,5v3.71c0,2.21-1.79,4-4,4h-26.37c-.58,0-1.06.45-1.1,1.03l-.02.23c-.04.62.43,1.15,1.04,1.18l4.87.27c13.94.93,16.92,4.87,16.92,11.81,0,2.93-.35,4.65-1.37,12.48-.05.39-.78,7.87-1.17,7.87l-1.76,1.37c-7.58.38-14.69-3.67-18.2-10.37-.14-.27-.26-.55-.38-.83-.64-1.54-2.99-6.93-4.53-7.16ZM242.14,50.99c7.9-1.07,14.39-2.34,19.48-3.81h-2.95c-4.76,0-9.99.15-15.7.45-3.02.16-5.86.34-8.54.56-3.77.3-7.09-2.46-7.49-6.23l-.09-.8c-.36-3.36,2.11-6.35,5.48-6.63,6.53-.53,13.7-.8,21.51-.8h4.1c-3.02-.85-6.22-1.57-9.59-2.16-4.08-.72-6.24-5.26-4.19-8.86l.26-.46c1.6-2.82,4.92-4.27,8.04-3.36,5.92,1.73,12.07,7.85,15.9,10.95,3.48,2.81,7.24,5.23,11.25,7.21,2.04,1.01,3.92.05,4.9.66,2.68,1.67,4.02,3.68,4.02,6.03,0,1.6-3.28,3.55-1.76,4.93,3.51,3.18,10.47,13.85,8.99,16.68-.08.16.13,1.75-2.05,2.03-.75.1-1.52-.03-2.23-.29l-8.77-3.18c-.61,0-8.22-3.36-9.26-4.62-.3-.37-.82-.45-1.25-.26-6.06,2.65-13.52,4.81-22.38,6.47-7.27,1.36-14.57,2.36-21.91,2.98-3.35.29-6.44-1.86-7.34-5.1l-.5-1.81c-1.18-4.21,1.76-8.49,6.12-8.85,5.43-.45,10.75-1.03,15.97-1.74Z"/>
        <path class="cls-4" d="M313.73,112.65c4.37-5.9,7.13-10.96,8.28-15.17.27-1.09.41-1.94.41-2.54,0-1.09-.37-1.85-1.11-2.25-.74-.41-1.98-.62-3.73-.62-.94,0-1.87.04-2.77.12-4.59.42-8.7-2.83-9.14-7.43l-.26-2.72c-.39-4.06,2.55-8.05,6.54-8.88,1-.21,2.07-.4,3.21-.57,4.51-.68,8.4-.94,11.68-.78,6.83.38,11.78,1.9,14.84,4.55,3.06,2.65,4.59,6.49,4.59,11.52,0,1.53-.19,3.58-.57,6.15-.75,4.4-2.32,9.17-4.72,14.3-.46.98,2.45,6.82,3.44,8.44,2.36,3.82,5.74,9.34,5.31,17.09-.23,4.16-3.82,7.57-7.99,7.57h-1.28c-3.9,0-7.05-3.2-7-7.11,0-.44,0-.86,0-1.26,0-3.23-.16-5.51-.49-6.85v-.04c-.28-1.1-1.7-1.36-2.37-.45-2.38,3.27-4.92,6.46-7.62,9.57-3.86,4.46-10.67,4.79-14.91.7l-2.12-2.04c-3.24-3.12-3.41-8.27-.34-11.55,2.78-2.98,5.48-6.23,8.09-9.75ZM352.76,92.8h2.04c.77,0,1.39-.62,1.38-1.39-.07-3.88-.11-8.98-.13-15.31,0-3.32,10.73-3.83,13.67-2.28,7.56,4,1.71,63.25,1.71,63.25,0,3.87-.48,7.63-4.35,7.63h-1.19c-4.22,0-7.72-3.28-7.99-7.49-.52-8.18-.91-16.53-1.17-25.03-.02-.74-.63-1.34-1.37-1.34h-1.6c-3.31,0-6-2.69-6-6v-7.04c0-2.76,2.24-5,5-5ZM385.69,68.45h1.53c4.96,0,8.99,4,9,8.96,0,1.48,0,3.09,0,4.81,0,19.06-.6,37.4-1.79,55.03-.35,5.12-4.61,9.1-9.75,9.1h0c-3.87,0-7-3.13-7-7v-62.9c0-4.42,3.58-8,8-8Z"/>
      </g>
      <path class="cls-5" d="M24.85,68.91c.33.5.18.85-.25,1.05s-.86-.06-.82-.66c.05-.86-.05-.88,0-1.36.05-.57.58.21,1.08.97Z"/>
      <path class="cls-5" d="M16.48,64.61c.33.5.18.85-.25,1.05s-.86-.06-.82-.66c.05-.86-.05-.88,0-1.36.05-.57.58.21,1.08.97Z"/>
      <path class="cls-5" d="M26.61,86.37c.33.5.18.85-.25,1.05s-.86-.06-.82-.66c.05-.86-.05-.88,0-1.36.05-.57.58.21,1.08.97Z"/>
      <path class="cls-5" d="M46.95,87.22c.33.5.18.85-.25,1.05s-.86-.06-.82-.66c.05-.86-.05-.88,0-1.36.05-.57.58.21,1.08.97Z"/>
      <path class="cls-5" d="M47.93,75.68c.33.5.18.85-.25,1.05s-.86-.06-.82-.66c.05-.86-.05-.88,0-1.36.05-.57.58.21,1.08.97Z"/>
      <path class="cls-5" d="M44.61,63.85c.33.5.18.85-.25,1.05s-.86-.06-.82-.66c.05-.86-.05-.88,0-1.36.05-.57.58.21,1.08.97Z"/>
      <path class="cls-5" d="M36.14,56.68c.33.5.18.85-.25,1.05s-.86-.06-.82-.66c.05-.86-.05-.88,0-1.36.05-.57.58.21,1.08.97Z"/>
      <path class="cls-5" d="M56.65,56.49c.33.5.18.85-.25,1.05s-.86-.06-.82-.66c.05-.86-.05-.88,0-1.36.05-.57.58.21,1.08.97Z"/>
      <path class="cls-5" d="M57.29,71.2c.33.5.18.85-.25,1.05s-.86-.06-.82-.66c.05-.86-.05-.88,0-1.36.05-.57.58.21,1.08.97Z"/>
      <path class="cls-5" d="M57.92,49.39c.33.5.18.85-.25,1.05s-.86-.06-.82-.66c.05-.86-.05-.88,0-1.36.05-.57.58.21,1.08.97Z"/>
      <path class="cls-5" d="M50.72,99.74c.33.5.18.85-.25,1.05s-.86-.06-.82-.66c.05-.86-.05-.88,0-1.36.05-.57.58.21,1.08.97Z"/>
      <path class="cls-5" d="M57.92,91.13c.33.5.18.85-.25,1.05s-.86-.06-.82-.66c.05-.86-.05-.88,0-1.36.05-.57.58.21,1.08.97Z"/>
      <path class="cls-5" d="M38.85,100.88c.33.5.18.85-.25,1.05s-.86-.06-.82-.66c.05-.86-.05-.88,0-1.36.05-.57.58.21,1.08.97Z"/>
      <path class="cls-5" d="M67.35,94.39c.33.5.18.85-.25,1.05s-.86-.06-.82-.66c.05-.86-.05-.88,0-1.36.05-.57.58.21,1.08.97Z"/>
      <path class="cls-5" d="M95.85,88.36c.33.5.18.85-.25,1.05s-.86-.06-.82-.66c.05-.86-.05-.88,0-1.36.05-.57.58.21,1.08.97Z"/>
      <path class="cls-5" d="M82.34,54.18c.33.5.18.85-.25,1.05s-.86-.06-.82-.66c.05-.86-.05-.88,0-1.36.05-.57.58.21,1.08.97Z"/>
      <path class="cls-5" d="M95.85,108.18c.33.5.18.85-.25,1.05s-.86-.06-.82-.66c.05-.86-.05-.88,0-1.36.05-.57.58.21,1.08.97Z"/>
      <path class="cls-5" d="M113.98,103.17c.33.5.18.85-.25,1.05s-.86-.06-.82-.66c.05-.86-.05-.88,0-1.36.05-.57.58.21,1.08.97Z"/>
      <path class="cls-5" d="M53.53,113.7c.33.5.18.85-.25,1.05s-.86-.06-.82-.66c.05-.86-.05-.88,0-1.36.05-.57.58.21,1.08.97Z"/>
      <path class="cls-5" d="M69.9,116.96c.33.5.18.85-.25,1.05s-.86-.06-.82-.66c.05-.86-.05-.88,0-1.36.05-.57.58.21,1.08.97Z"/>
      <path class="cls-5" d="M52.89,124.12c.33.5.18.85-.25,1.05s-.86-.06-.82-.66c.05-.86-.05-.88,0-1.36.05-.57.58.21,1.08.97Z"/>
      <path class="cls-5" d="M63.05,111.61c.33.5.18.85-.25,1.05s-.86-.06-.82-.66c.05-.86-.05-.88,0-1.36.05-.57.58.21,1.08.97Z"/>
      <path class="cls-5" d="M85.35,116.96c.33.5.18.85-.25,1.05s-.86-.06-.82-.66c.05-.86-.05-.88,0-1.36.05-.57.58.21,1.08.97Z"/>
      <path class="cls-5" d="M77.27,110.47c.33.5.18.85-.25,1.05s-.86-.06-.82-.66c.05-.86-.05-.88,0-1.36.05-.57.58.21,1.08.97Z"/>
      <path class="cls-5" d="M72.43,85.23c.33.5.18.85-.25,1.05s-.86-.06-.82-.66c.05-.86-.05-.88,0-1.36.05-.57.58.21,1.08.97Z"/>
      <path class="cls-5" d="M74.8,102.03c.33.5.18.85-.25,1.05s-.86-.06-.82-.66c.05-.86-.05-.88,0-1.36.05-.57.58.21,1.08.97Z"/>
      <path class="cls-5" d="M89.14,80.31c.33.5.18.85-.25,1.05s-.86-.06-.82-.66c.05-.86-.05-.88,0-1.36.05-.57.58.21,1.08.97Z"/>
      <path class="cls-5" d="M95.22,71.2c.33.5.18.85-.25,1.05s-.86-.06-.82-.66c.05-.86-.05-.88,0-1.36.05-.57.58.21,1.08.97Z"/>
      <path class="cls-5" d="M84.72,69.19c.33.5.18.85-.25,1.05s-.86-.06-.82-.66c.05-.86-.05-.88,0-1.36.05-.57.58.21,1.08.97Z"/>
      <path class="cls-5" d="M99.96,76.83c.33.5.18.85-.25,1.05s-.86-.06-.82-.66c.05-.86-.05-.88,0-1.36.05-.57.58.21,1.08.97Z"/>
      <path class="cls-5" d="M126.5,84.08c.33.5.18.85-.25,1.05s-.86-.06-.82-.66c.05-.86-.05-.88,0-1.36.05-.57.58.21,1.08.97Z"/>
      <path class="cls-5" d="M98.69,51.89c.33.5.18.85-.25,1.05s-.86-.06-.82-.66c.05-.86-.05-.88,0-1.36.05-.57.58.21,1.08.97Z"/>
      <path class="cls-5" d="M91.02,57.63c.33.5.18.85-.25,1.05s-.86-.06-.82-.66c.05-.86-.05-.88,0-1.36.05-.57.58.21,1.08.97Z"/>
      <path class="cls-5" d="M130.35,128.57c.33.5.18.85-.25,1.05s-.86-.06-.82-.66c.05-.86-.05-.88,0-1.36.05-.57.58.21,1.08.97Z"/>
      <path class="cls-5" d="M148.43,138.93c.33.5.18.85-.25,1.05s-.86-.06-.82-.66c.05-.86-.05-.88,0-1.36.05-.57.58.21,1.08.97Z"/>
      <path class="cls-5" d="M142.15,89.99c.33.5.18.85-.25,1.05s-.86-.06-.82-.66c.05-.86-.05-.88,0-1.36.05-.57.58.21,1.08.97Z"/>
      <path class="cls-5" d="M142.78,75.68c.33.5.18.85-.25,1.05s-.86-.06-.82-.66c.05-.86-.05-.88,0-1.36.05-.57.58.21,1.08.97Z"/>
      <path class="cls-5" d="M154.35,80.31c.33.5.18.85-.25,1.05s-.86-.06-.82-.66c.05-.86-.05-.88,0-1.36.05-.57.58.21,1.08.97Z"/>
      <path class="cls-5" d="M150.75,107.76c-.01.6-.33.8-.8.72s-.67-.54-.3-1.01c.53-.68.46-.75.77-1.13.36-.44.35.5.33,1.41Z"/>
      <path class="cls-5" d="M165.59,88.84c.33.5.18.85-.25,1.05s-.86-.06-.82-.66c.05-.86-.05-.88,0-1.36.05-.57.58.21,1.08.97Z"/>
      <path class="cls-5" d="M160.85,74.54c.33.5.18.85-.25,1.05s-.86-.06-.82-.66c.05-.86-.05-.88,0-1.36.05-.57.58.21,1.08.97Z"/>
      <path class="cls-5" d="M152.67,92.27c.33.5.18.85-.25,1.05s-.86-.06-.82-.66c.05-.86-.05-.88,0-1.36.05-.57.58.21,1.08.97Z"/>
      <path class="cls-5" d="M161.03,111.59c.06.59-.22.84-.7.82s-.74-.45-.43-.96c.44-.75.36-.81.61-1.22.3-.48.42.45.52,1.36Z"/>
      <path class="cls-5" d="M205.57,100.27c.42.42.35.79-.03,1.08s-.85.11-.94-.49c-.12-.86-.22-.85-.28-1.34-.06-.57.61.09,1.25.74Z"/>
      <path class="cls-6" d="M247.6,58.49c.16.7-.17,1.04-.77,1.08s-.99-.44-.67-1.1c.45-.96.34-1.02.62-1.54.32-.62.59.49.83,1.56Z"/>
      <path class="cls-6" d="M262.43,55.14c.16.7-.17,1.04-.77,1.08s-.99-.44-.67-1.1c.45-.96.34-1.02.62-1.54.32-.62.59.49.83,1.56Z"/>
      <path class="cls-6" d="M259.89,77.13c.16.7-.17,1.04-.77,1.08s-.99-.44-.67-1.1c.45-.96.34-1.02.62-1.54.32-.62.59.49.83,1.56Z"/>
      <path class="cls-6" d="M292.57,75.11c.16.7-.17,1.04-.77,1.08s-.99-.44-.67-1.1c.45-.96.34-1.02.62-1.54.32-.62.59.49.83,1.56Z"/>
      <path class="cls-6" d="M282.44,113.54c.16.7-.17,1.04-.77,1.08s-.99-.44-.67-1.1c.45-.96.34-1.02.62-1.54.32-.62.59.49.83,1.56Z"/>
      <path class="cls-6" d="M286.77,104.62c.16.7-.17,1.04-.77,1.08s-.99-.44-.67-1.1c.45-.96.34-1.02.62-1.54.32-.62.59.49.83,1.56Z"/>
      <path class="cls-6" d="M327.37,98.13c.16.7-.17,1.04-.77,1.08s-.99-.44-.67-1.1c.45-.96.34-1.02.62-1.54.32-.62.59.49.83,1.56Z"/>
      <path class="cls-6" d="M338.74,125.17c.16.7-.17,1.04-.77,1.08s-.99-.44-.67-1.1c.45-.96.34-1.02.62-1.54.32-.62.59.49.83,1.56Z"/>
      <path class="cls-6" d="M358.26,106.3c.16.7-.17,1.04-.77,1.08s-.99-.44-.67-1.1c.45-.96.34-1.02.62-1.54.32-.62.59.49.83,1.56Z"/>
      <path class="cls-6" d="M346.26,131.77c.16.7-.17,1.04-.77,1.08s-.99-.44-.67-1.1c.45-.96.34-1.02.62-1.54.32-.62.59.49.83,1.56Z"/>
      <path class="cls-6" d="M340.34,135.41c.16.7-.17,1.04-.77,1.08s-.99-.44-.67-1.1c.45-.96.34-1.02.62-1.54.32-.62.59.49.83,1.56Z"/>
      <path class="cls-6" d="M276.69,103.47c.16.7-.17,1.04-.77,1.08s-.99-.44-.67-1.1c.45-.96.34-1.02.62-1.54.32-.62.59.49.83,1.56Z"/>
      <path class="cls-6" d="M320.64,118.61c.16.7-.17,1.04-.77,1.08s-.99-.44-.67-1.1c.45-.96.34-1.02.62-1.54.32-.62.59.49.83,1.56Z"/>
      <path class="cls-6" d="M272.86,73.7c.16.7-.17,1.04-.77,1.08s-.99-.44-.67-1.1c.45-.96.34-1.02.62-1.54.32-.62.59.49.83,1.56Z"/>
      <path class="cls-6" d="M338.74,91.43c.16.7-.17,1.04-.77,1.08s-.99-.44-.67-1.1c.45-.96.34-1.02.62-1.54.32-.62.59.49.83,1.56Z"/>
      <path class="cls-6" d="M334.74,104.89c.16.7-.17,1.04-.77,1.08s-.99-.44-.67-1.1c.45-.96.34-1.02.62-1.54.32-.62.59.49.83,1.56Z"/>
      <path class="cls-6" d="M314.73,126.58c.16.7-.17,1.04-.77,1.08s-.99-.44-.67-1.1c.45-.96.34-1.02.62-1.54.32-.62.59.49.83,1.56Z"/>
      <path class="cls-6" d="M285.17,95.84c.16.7-.17,1.04-.77,1.08s-.99-.44-.67-1.1c.45-.96.34-1.02.62-1.54.32-.62.59.49.83,1.56Z"/>
      <path class="cls-6" d="M327.37,83.24c.16.7-.17,1.04-.77,1.08s-.99-.44-.67-1.1c.45-.96.34-1.02.62-1.54.32-.62.59.49.83,1.56Z"/>
      <path class="cls-6" d="M369.6,106.56c.16.7-.17,1.04-.77,1.08s-.99-.44-.67-1.1c.45-.96.34-1.02.62-1.54.32-.62.59.49.83,1.56Z"/>
      <path class="cls-6" d="M383.02,120.02c.16.7-.17,1.04-.77,1.08s-.99-.44-.67-1.1c.45-.96.34-1.02.62-1.54.32-.62.59.49.83,1.56Z"/>
      <path class="cls-6" d="M383.81,138.09c.16.7-.17,1.04-.77,1.08s-.99-.44-.67-1.1c.45-.96.34-1.02.62-1.54.32-.62.59.49.83,1.56Z"/>
      <path class="cls-6" d="M368,95.84c.16.7-.17,1.04-.77,1.08s-.99-.44-.67-1.1c.45-.96.34-1.02.62-1.54.32-.62.59.49.83,1.56Z"/>
      <path class="cls-6" d="M391.19,96.98c.16.7-.17,1.04-.77,1.08s-.99-.44-.67-1.1c.45-.96.34-1.02.62-1.54.32-.62.59.49.83,1.56Z"/>
      <path class="cls-6" d="M386.11,109.62c.16.7-.17,1.04-.77,1.08s-.99-.44-.67-1.1c.45-.96.34-1.02.62-1.54.32-.62.59.49.83,1.56Z"/>
      <path class="cls-6" d="M394.27,112.74c.16.7-.17,1.04-.77,1.08s-.99-.44-.67-1.1c.45-.96.34-1.02.62-1.54.32-.62.59.49.83,1.56Z"/>
      <path class="cls-6" d="M388.51,126.58c.16.7-.17,1.04-.77,1.08s-.99-.44-.67-1.1c.45-.96.34-1.02.62-1.54.32-.62.59.49.83,1.56Z"/>
      <path class="cls-6" d="M394.27,128.87c.16.7-.17,1.04-.77,1.08s-.99-.44-.67-1.1c.45-.96.34-1.02.62-1.54.32-.62.59.49.83,1.56Z"/>
      <path class="cls-6" d="M365.57,85.53c.16.7-.17,1.04-.77,1.08s-.99-.44-.67-1.1c.45-.96.34-1.02.62-1.54.32-.62.59.49.83,1.56Z"/>
      <path class="cls-6" d="M386.91,85.53c.16.7-.17,1.04-.77,1.08s-.99-.44-.67-1.1c.45-.96.34-1.02.62-1.54.32-.62.59.49.83,1.56Z"/>
      <path class="cls-6" d="M383.02,94.96c.16.7-.17,1.04-.77,1.08s-.99-.44-.67-1.1c.45-.96.34-1.02.62-1.54.32-.62.59.49.83,1.56Z"/>
      <path class="cls-6" d="M387.71,76.24c.16.7-.17,1.04-.77,1.08s-.99-.44-.67-1.1c.45-.96.34-1.02.62-1.54.32-.62.59.49.83,1.56Z"/>
      <path class="cls-6" d="M360.63,77.65c.16.7-.17,1.04-.77,1.08s-.99-.44-.67-1.1c.45-.96.34-1.02.62-1.54.32-.62.59.49.83,1.56Z"/>
      <path class="cls-6" d="M292.57,91.43c.16.7-.17,1.04-.77,1.08s-.99-.44-.67-1.1c.45-.96.34-1.02.62-1.54.32-.62.59.49.83,1.56Z"/>
      <path class="cls-6" d="M289.47,112.5c.16.7-.17,1.04-.77,1.08s-.99-.44-.67-1.1c.45-.96.34-1.02.62-1.54.32-.62.59.49.83,1.56Z"/>
      <path class="cls-6" d="M325.82,108.48c.16.7-.17,1.04-.77,1.08s-.99-.44-.67-1.1c.45-.96.34-1.02.62-1.54.32-.62.59.49.83,1.56Z"/>
      <path class="cls-6" d="M333.15,115.14c.16.7-.17,1.04-.77,1.08s-.99-.44-.67-1.1c.45-.96.34-1.02.62-1.54.32-.62.59.49.83,1.56Z"/>
      <path class="cls-6" d="M259.09,86.38c.16.7-.17,1.04-.77,1.08s-.99-.44-.67-1.1c.45-.96.34-1.02.62-1.54.32-.62.59.49.83,1.56Z"/>
      <path class="cls-6" d="M272.86,92c.16.7-.17,1.04-.77,1.08s-.99-.44-.67-1.1c.45-.96.34-1.02.62-1.54.32-.62.59.49.83,1.56Z"/>
      <path class="cls-6" d="M337.94,81.76c.16.7-.17,1.04-.77,1.08s-.99-.44-.67-1.1c.45-.96.34-1.02.62-1.54.32-.62.59.49.83,1.56Z"/>
      <path class="cls-6" d="M361.43,135.41c.16.7-.17,1.04-.77,1.08s-.99-.44-.67-1.1c.45-.96.34-1.02.62-1.54.32-.62.59.49.83,1.56Z"/>
      <path class="cls-6" d="M370.4,133.18c.16.7-.17,1.04-.77,1.08s-.99-.44-.67-1.1c.45-.96.34-1.02.62-1.54.32-.62.59.49.83,1.56Z"/>
      <path class="cls-6" d="M364.77,120.02c.16.7-.17,1.04-.77,1.08s-.99-.44-.67-1.1c.45-.96.34-1.02.62-1.54.32-.62.59.49.83,1.56Z"/>
      <path class="cls-6" d="M359.06,92.58c.16.7-.17,1.04-.77,1.08s-.99-.44-.67-1.1c.45-.96.34-1.02.62-1.54.32-.62.59.49.83,1.56Z"/>
      <path class="cls-6" d="M315.53,83.24c.16.7-.17,1.04-.77,1.08s-.99-.44-.67-1.1c.45-.96.34-1.02.62-1.54.32-.62.59.49.83,1.56Z"/>
      <path class="cls-6" d="M250.59,94.96c.16.7-.17,1.04-.77,1.08s-.99-.44-.67-1.1c.45-.96.34-1.02.62-1.54.32-.62.59.49.83,1.56Z"/>
      <path class="cls-6" d="M234.29,93.55c.16.7-.17,1.04-.77,1.08s-.99-.44-.67-1.1c.45-.96.34-1.02.62-1.54.32-.62.59.49.83,1.56Z"/>
      <path class="cls-6" d="M242.39,77.65c.16.7-.17,1.04-.77,1.08s-.99-.44-.67-1.1c.45-.96.34-1.02.62-1.54.32-.62.59.49.83,1.56Z"/>
      <path class="cls-6" d="M237.55,55.31c.16.7-.17,1.04-.77,1.08s-.99-.44-.67-1.1c.45-.96.34-1.02.62-1.54.32-.62.59.49.83,1.56Z"/>
      <path class="cls-6" d="M233.49,65.39c.16.7-.17,1.04-.77,1.08s-.99-.44-.67-1.1c.45-.96.34-1.02.62-1.54.32-.62.59.49.83,1.56Z"/>
      <path class="cls-6" d="M229.47,73.7c.16.7-.17,1.04-.77,1.08s-.99-.44-.67-1.1c.45-.96.34-1.02.62-1.54.32-.62.59.49.83,1.56Z"/>
      <path class="cls-6" d="M225.1,57.97c.16.7-.17,1.04-.77,1.08s-.99-.44-.67-1.1c.45-.96.34-1.02.62-1.54.32-.62.59.49.83,1.56Z"/>
      <path class="cls-6" d="M273.66,53.9c.16.7-.17,1.04-.77,1.08s-.99-.44-.67-1.1c.45-.96.34-1.02.62-1.54.32-.62.59.49.83,1.56Z"/>
      <path class="cls-6" d="M256.74,40.26c.16.7-.17,1.04-.77,1.08s-.99-.44-.67-1.1c.45-.96.34-1.02.62-1.54.32-.62.59.49.83,1.56Z"/>
      <path class="cls-6" d="M236.76,43.89c.16.7-.17,1.04-.77,1.08s-.99-.44-.67-1.1c.45-.96.34-1.02.62-1.54.32-.62.59.49.83,1.56Z"/>
      <path class="cls-6" d="M246,37.43c.16.7-.17,1.04-.77,1.08s-.99-.44-.67-1.1c.45-.96.34-1.02.62-1.54.32-.62.59.49.83,1.56Z"/>
      <path class="cls-6" d="M281.68,47.25c.16.7-.17,1.04-.77,1.08s-.99-.44-.67-1.1c.45-.96.34-1.02.62-1.54.32-.62.59.49.83,1.56Z"/>
      <path class="cls-6" d="M289.51,61.86c.16.7-.17,1.04-.77,1.08s-.99-.44-.67-1.1c.45-.96.34-1.02.62-1.54.32-.62.59.49.83,1.56Z"/>
      <path class="cls-6" d="M270.7,36.02c.16.7-.17,1.04-.77,1.08s-.99-.44-.67-1.1c.45-.96.34-1.02.62-1.54.32-.62.59.49.83,1.56Z"/>
      <path class="cls-6" d="M268.3,45.3c.16.7-.17,1.04-.77,1.08s-.99-.44-.67-1.1c.45-.96.34-1.02.62-1.54.32-.62.59.49.83,1.56Z"/>
      <path class="cls-6" d="M255.94,25.21c.16.7-.17,1.04-.77,1.08s-.99-.44-.67-1.1c.45-.96.34-1.02.62-1.54.32-.62.59.49.83,1.56Z"/>
      <path class="cls-5" d="M205.57,128.82c.42.42.35.79-.03,1.08s-.85.11-.94-.49c-.12-.86-.22-.85-.28-1.34-.06-.57.61.09,1.25.74Z"/>
      <path class="cls-5" d="M193.11,105.31c.42.42.35.79-.03,1.08s-.85.11-.94-.49c-.12-.86-.22-.85-.28-1.34-.06-.57.61.09,1.25.74Z"/>
      <path class="cls-5" d="M185.13,109.17c.42.42.35.79-.03,1.08s-.85.11-.94-.49c-.12-.86-.22-.85-.28-1.34-.06-.57.61.09,1.25.74Z"/>
      <path class="cls-5" d="M196.1,122.26c.42.42.35.79-.03,1.08s-.85.11-.94-.49c-.12-.86-.22-.85-.28-1.34-.06-.57.61.09,1.25.74Z"/>
      <path class="cls-5" d="M196.1,89.36c.42.42.35.79-.03,1.08s-.85.11-.94-.49c-.12-.86-.22-.85-.28-1.34-.06-.57.61.09,1.25.74Z"/>
      <path class="cls-5" d="M202.69,114.17c.42.42.35.79-.03,1.08s-.85.11-.94-.49c-.12-.86-.22-.85-.28-1.34-.06-.57.61.09,1.25.74Z"/>
      <path class="cls-5" d="M203.45,85.08c.42.42.35.79-.03,1.08s-.85.11-.94-.49c-.12-.86-.22-.85-.28-1.34-.06-.57.61.09,1.25.74Z"/>
      <path class="cls-5" d="M181.61,79.02c.42.42.35.79-.03,1.08s-.85.11-.94-.49c-.12-.86-.22-.85-.28-1.34-.06-.57.61.09,1.25.74Z"/>
      <path class="cls-5" d="M189.74,73.24c.42.42.35.79-.03,1.08s-.85.11-.94-.49c-.12-.86-.22-.85-.28-1.34-.06-.57.61.09,1.25.74Z"/>
      <path class="cls-5" d="M184.36,88.69c.42.42.35.79-.03,1.08s-.85.11-.94-.49c-.12-.86-.22-.85-.28-1.34-.06-.57.61.09,1.25.74Z"/>
      <path class="cls-5" d="M197.84,73.24c.42.42.35.79-.03,1.08s-.85.11-.94-.49c-.12-.86-.22-.85-.28-1.34-.06-.57.61.09,1.25.74Z"/>
      <path class="cls-5" d="M198.6,64.94c.42.42.35.79-.03,1.08s-.85.11-.94-.49c-.12-.86-.22-.85-.28-1.34-.06-.57.61.09,1.25.74Z"/>
      <path class="cls-5" d="M180.84,64.94c.42.42.35.79-.03,1.08s-.85.11-.94-.49c-.12-.86-.22-.85-.28-1.34-.06-.57.61.09,1.25.74Z"/>
      <path class="cls-5" d="M148.91,124.28c.06.59-.22.84-.7.82s-.74-.45-.43-.96c.44-.75.36-.81.61-1.22.3-.48.42.45.52,1.36Z"/>
      <path class="cls-5" d="M170.41,105.8c.02.59-.28.82-.75.77s-.7-.5-.36-.99c.49-.72.41-.78.7-1.17.34-.46.39.48.42,1.39Z"/>
      <path class="cls-5" d="M161.04,126.62c.02.59-.28.82-.75.77s-.7-.5-.36-.99c.49-.72.41-.78.7-1.17.34-.46.39.48.42,1.39Z"/>
      <path class="cls-5" d="M135.91,137.78c.33.5.18.85-.25,1.05s-.86-.06-.82-.66c.05-.86-.05-.88,0-1.36.05-.57.58.21,1.08.97Z"/>
      <path class="cls-5" d="M104.74,89.51c.33.5.18.85-.25,1.05s-.86-.06-.82-.66c.05-.86-.05-.88,0-1.36.05-.57.58.21,1.08.97Z"/>
      <path class="cls-5" d="M79.68,44.56c.33.5.18.85-.25,1.05s-.86-.06-.82-.66c.05-.86-.05-.88,0-1.36.05-.57.58.21,1.08.97Z"/>
      <path class="cls-5" d="M71.16,75.68c.33.5.18.85-.25,1.05s-.86-.06-.82-.66c.05-.86-.05-.88,0-1.36.05-.57.58.21,1.08.97Z"/>
    </g>
  </g>
</svg>